<svg width="40" height="40" viewBox="0 0 40 40" fill="none" xmlns="http://www.w3.org/2000/svg">
<path d="M27.8385 25.9202C25.6945 25.741 23.6182 25.0829 21.7625 23.9944C19.9068 22.9058 18.3191 21.4147 17.1165 19.6308C15.9138 17.8469 15.1269 15.8159 14.8138 13.6874C14.5007 11.5589 14.6693 9.38732 15.3072 7.33268C15.3449 7.21061 15.3442 7.07993 15.3053 6.95823C15.2665 6.83654 15.1912 6.72969 15.0898 6.65206C14.9883 6.57443 14.8655 6.52976 14.7379 6.52406C14.6102 6.51836 14.4839 6.55191 14.376 6.62018C12.4642 7.72133 10.8316 9.24773 9.60451 11.0812C8.37742 12.9146 7.5888 15.0059 7.29972 17.193C7.01064 19.3802 7.22886 21.6046 7.93749 23.6938C8.64611 25.7831 9.82612 27.6813 11.3861 29.2413C12.9461 30.8013 14.8443 31.9813 16.9336 32.6899C19.0228 33.3985 21.2472 33.6168 23.4344 33.3277C25.6215 33.0386 27.7128 32.25 29.5462 31.0229C31.3797 29.7958 32.9061 28.1632 34.0072 26.2514C34.0712 26.1436 34.1012 26.019 34.0934 25.8938C34.0856 25.7687 34.0403 25.6488 33.9635 25.5497C33.8866 25.4506 33.7818 25.3769 33.6625 25.3382C33.5432 25.2995 33.4151 25.2976 33.2947 25.3327C31.5304 25.8762 29.6781 26.0756 27.8385 25.9202Z" fill="#FAFAFA"/>
</svg>
