<svg width="40" height="40" viewBox="0 0 40 40" fill="none" xmlns="http://www.w3.org/2000/svg">
<path d="M20.4978 36C17.7419 36 15.5078 33.7659 15.5078 31.01C15.5078 28.2541 17.7419 26.02 20.4978 26.02C21.0954 26.02 21.6684 26.125 22.1994 26.3177C23.2472 23.7549 25.7652 21.9492 28.705 21.9492C32.5851 21.9492 35.7304 25.0946 35.7304 28.9746C35.7304 29.1455 35.7243 29.315 35.7123 29.4829C36.8857 30.0232 37.7002 31.2094 37.7002 32.5858C37.7002 34.4714 36.1716 36 34.286 36H20.4978Z" fill="white" fill-opacity="0.4"/>
<path fill-rule="evenodd" clip-rule="evenodd" d="M1.50781 23.01C1.50781 25.7659 3.74191 28 6.49781 28H15.3179C16.3557 26.2179 18.2869 25.02 20.4978 25.02C20.894 25.02 21.2819 25.0586 21.6577 25.1324C22.0916 24.3382 22.6559 23.6252 23.322 23.0224C22.9732 22.3465 22.4054 21.802 21.7123 21.4829C21.7243 21.315 21.7304 21.1455 21.7304 20.9746C21.7304 17.0946 18.5851 13.9492 14.705 13.9492C11.7652 13.9492 9.24719 15.7549 8.19945 18.3177C7.6684 18.125 7.09537 18.02 6.49781 18.02C3.74191 18.02 1.50781 20.2541 1.50781 23.01Z" fill="white"/>
<path fill-rule="evenodd" clip-rule="evenodd" d="M21.6787 17C20.4375 14.827 18.2099 13.2901 15.6059 12.9992C15.5416 12.6795 15.5078 12.3487 15.5078 12.01C15.5078 9.2541 17.7419 7.02001 20.4978 7.02001C21.0954 7.02001 21.6684 7.12504 22.1994 7.31766C23.2472 4.75489 25.7652 2.94922 28.705 2.94922C32.5851 2.94922 35.7304 6.09459 35.7304 9.97461C35.7304 10.1455 35.7243 10.315 35.7123 10.4829C36.8857 11.0232 37.7002 12.2094 37.7002 13.5858C37.7002 15.4714 36.1716 17 34.286 17H21.6787Z" fill="white" fill-opacity="0.1"/>
</svg>
