<svg width="40" height="40" viewBox="0 0 40 40" fill="none" xmlns="http://www.w3.org/2000/svg">
<path d="M10.3698 25.5973C6.02344 25.5973 2.5 22.0738 2.5 17.7274C2.5 13.3811 6.02344 9.85762 10.3698 9.85762C11.3123 9.85762 12.216 10.0233 13.0535 10.3271C14.7059 6.28526 18.6772 3.4375 23.3136 3.4375C29.4329 3.4375 34.3935 8.39813 34.3935 14.5174C34.3935 14.7869 34.3839 15.0543 34.3649 15.319C36.2154 16.1711 37.5 18.0418 37.5 20.2126C37.5 23.1865 35.0892 25.5973 32.1154 25.5973H10.3698Z" fill="white"/>
<path d="M29.0489 29.9089L27.9741 27.668L26.8992 29.9089C26.7926 30.0957 26.7315 30.3128 26.7315 30.5444C26.7315 31.2433 27.2878 31.81 27.9741 31.81C28.6604 31.81 29.2167 31.2433 29.2167 30.5444C29.2167 30.3127 29.1556 30.0956 29.0489 29.9089Z" fill="#64D2FF"/>
<path d="M21.5933 29.9089L20.5185 27.668L19.4436 29.9089C19.337 30.0956 19.2759 30.3127 19.2759 30.5444C19.2759 31.2433 19.8322 31.81 20.5185 31.81C21.2047 31.81 21.7611 31.2433 21.7611 30.5444C21.7611 30.3128 21.7 30.0957 21.5933 29.9089Z" fill="#64D2FF"/>
<path d="M14.3448 29.909L13.27 27.668L12.1951 29.9088C12.0884 30.0956 12.0273 30.3127 12.0273 30.5444C12.0273 31.2433 12.5837 31.81 13.2699 31.81C13.9562 31.81 14.5126 31.2433 14.5126 30.5444C14.5126 30.3128 14.4515 30.0957 14.3448 29.909Z" fill="#64D2FF"/>
</svg>
