<svg width="40" height="40" viewBox="0 0 40 40" fill="none" xmlns="http://www.w3.org/2000/svg">
<path d="M10.3698 25.5973C6.02344 25.5973 2.5 22.0738 2.5 17.7274C2.5 13.3811 6.02344 9.85762 10.3698 9.85762C11.3123 9.85762 12.216 10.0233 13.0535 10.3271C14.7059 6.28526 18.6772 3.4375 23.3136 3.4375C29.4329 3.4375 34.3935 8.39813 34.3935 14.5174C34.3935 14.7869 34.3839 15.0543 34.3649 15.319C36.2154 16.1711 37.5 18.0418 37.5 20.2126C37.5 23.1865 35.0892 25.5973 32.1154 25.5973H10.3698Z" fill="white"/>
<path d="M29.0463 29.9089L27.9714 27.668L26.8966 29.9089C26.7899 30.0957 26.7288 30.3128 26.7288 30.5444C26.7288 31.2433 27.2852 31.81 27.9714 31.81C28.6577 31.81 29.214 31.2433 29.214 30.5444C29.214 30.3127 29.1529 30.0956 29.0463 29.9089Z" fill="#64D2FF"/>
<path d="M25.3185 34.4652L24.2436 32.2242L23.1688 34.465C23.0621 34.6518 23.001 34.8689 23.001 35.1006C23.001 35.7996 23.5573 36.3662 24.2436 36.3662C24.9299 36.3662 25.4862 35.7996 25.4862 35.1006C25.4862 34.869 25.4252 34.6519 25.3185 34.4652Z" fill="#64D2FF"/>
<path d="M21.5907 29.9089L20.5158 27.668L19.441 29.9089C19.3343 30.0956 19.2732 30.3127 19.2732 30.5444C19.2732 31.2433 19.8295 31.81 20.5158 31.81C21.2021 31.81 21.7584 31.2433 21.7584 30.5444C21.7584 30.3128 21.6973 30.0957 21.5907 29.9089Z" fill="#64D2FF"/>
<path d="M18.0699 34.465L16.9951 32.2242L15.9202 34.4652C15.8136 34.6519 15.7525 34.869 15.7525 35.1006C15.7525 35.7996 16.3088 36.3662 16.9951 36.3662C17.6814 36.3662 18.2377 35.7996 18.2377 35.1006C18.2377 34.8689 18.1766 34.6518 18.0699 34.465Z" fill="#64D2FF"/>
<path d="M14.3422 29.909L13.2673 27.668L12.1925 29.9088C12.0858 30.0956 12.0247 30.3127 12.0247 30.5444C12.0247 31.2433 12.581 31.81 13.2673 31.81C13.9536 31.81 14.5099 31.2433 14.5099 30.5444C14.5099 30.3128 14.4488 30.0957 14.3422 29.909Z" fill="#64D2FF"/>
<path d="M10.6143 34.4651L9.53948 32.2242L8.46464 34.4651C8.35797 34.6519 8.29688 34.8689 8.29688 35.1006C8.29688 35.7996 8.85321 36.3662 9.53948 36.3662C10.2257 36.3662 10.7821 35.7996 10.7821 35.1006C10.7821 34.8689 10.721 34.6519 10.6143 34.4651Z" fill="#64D2FF"/>
</svg>
