<svg width="40" height="40" viewBox="0 0 40 40" fill="none" xmlns="http://www.w3.org/2000/svg">
<path d="M27.9016 18.2461H25.7085C25.3009 18.2461 24.9401 18.5093 24.8157 18.8974L22.772 25.2728C22.578 25.8778 23.0294 26.4965 23.6647 26.4965H24.7841C25.1419 26.4965 25.4267 26.7963 25.4083 27.1536L25.0617 33.8839C25.0531 34.0518 25.2795 34.113 25.3566 33.9636L30.165 24.6477C30.4871 24.0238 30.0341 23.2802 29.3319 23.2802H28.396C27.9697 23.2802 27.6685 22.863 27.8028 22.4584L28.7914 19.4788C28.9928 18.872 28.541 18.2461 27.9016 18.2461Z" fill="#FCB307"/>
<path d="M30.6813 25.9098L31.3252 24.6624C31.8944 23.5597 31.0939 22.2457 29.8529 22.2457H28.9666L29.9141 19.3901C30.27 18.3177 29.4715 17.2115 28.3416 17.2115H25.4797C24.7595 17.2115 24.1218 17.6768 23.902 18.3626L21.6556 25.3704C21.5976 25.5513 21.5722 25.7329 21.5756 25.9098L10.3698 25.9098C6.02344 25.9098 2.5 22.3863 2.5 18.0399C2.5 13.6935 6.02344 10.1701 10.3698 10.1701C11.3123 10.1701 12.216 10.3358 13.0535 10.6396C14.7059 6.59776 18.6772 3.75 23.3136 3.75C29.4329 3.75 34.3935 8.71063 34.3935 14.8299C34.3935 15.0994 34.3839 15.3668 34.3649 15.6315C36.2154 16.4836 37.5 18.3543 37.5 20.5251C37.5 23.499 35.0892 25.9098 32.1154 25.9098H30.6813Z" fill="white"/>
<path d="M21.3836 34.3632L20.3088 32.1225L19.234 34.3635C19.1273 34.5502 19.0663 34.7673 19.0663 34.9989C19.0663 35.6978 19.6226 36.2645 20.3089 36.2645C20.9951 36.2645 21.5515 35.6978 21.5515 34.9989C21.5515 34.7671 21.4903 34.55 21.3836 34.3632Z" fill="#64D2FF"/>
<path d="M17.656 30.2215L16.5811 27.9805L15.5063 30.2212C15.3996 30.408 15.3384 30.6252 15.3384 30.8569C15.3384 31.5558 15.8948 32.1225 16.581 32.1225C17.2673 32.1225 17.8236 31.5558 17.8236 30.8569C17.8236 30.6253 17.7626 30.4082 17.656 30.2215Z" fill="#64D2FF"/>
<path d="M13.9281 34.3634L12.8533 32.1225L11.7785 34.3633C11.6718 34.55 11.6106 34.7672 11.6106 34.9989C11.6106 35.6978 12.167 36.2645 12.8532 36.2645C13.5395 36.2645 14.0959 35.6978 14.0959 34.9989C14.0959 34.7672 14.0348 34.5501 13.9281 34.3634Z" fill="#64D2FF"/>
<path d="M10.2002 30.2213L9.12541 27.9805L8.05056 30.2214C7.9439 30.4082 7.88281 30.6252 7.88281 30.8569C7.88281 31.5558 8.43914 32.1225 9.12542 32.1225C9.81169 32.1225 10.368 31.5558 10.368 30.8569C10.368 30.6252 10.3069 30.4081 10.2002 30.2213Z" fill="#64D2FF"/>
</svg>
