<svg width="40" height="40" viewBox="0 0 40 40" fill="none" xmlns="http://www.w3.org/2000/svg">
<path d="M20 9.0625V30.9375" stroke="#B9C1C6" stroke-width="1.249" stroke-miterlimit="10" stroke-linecap="round"/>
<path d="M22.5445 6.22266L20.0008 9.39766L17.457 6.22266" stroke="#B9C1C6" stroke-width="1.249" stroke-miterlimit="10" stroke-linecap="round"/>
<path d="M17.457 33.7727L20.0008 30.5977L22.5445 33.7727" stroke="#B9C1C6" stroke-width="1.249" stroke-miterlimit="10" stroke-linecap="round"/>
<path d="M27.732 12.2695L12.2695 27.732" stroke="#B9C1C6" stroke-width="1.249" stroke-miterlimit="10" stroke-linecap="round"/>
<path d="M31.5375 12.0609L27.5 12.4984L27.9375 8.46094" stroke="#B9C1C6" stroke-width="1.249" stroke-miterlimit="10" stroke-linecap="round"/>
<path d="M8.46094 27.9375L12.4984 27.5L12.0609 31.5375" stroke="#B9C1C6" stroke-width="1.249" stroke-miterlimit="10" stroke-linecap="round"/>
<path d="M30.9375 19.9961H9.0625" stroke="#B9C1C6" stroke-width="1.249" stroke-miterlimit="10" stroke-linecap="round"/>
<path d="M33.7727 22.5406L30.5977 19.9969L33.7727 17.4531" stroke="#B9C1C6" stroke-width="1.249" stroke-miterlimit="10" stroke-linecap="round"/>
<path d="M6.22656 17.4531L9.40156 19.9969L6.22656 22.5406" stroke="#B9C1C6" stroke-width="1.249" stroke-miterlimit="10" stroke-linecap="round"/>
<path d="M27.732 27.732L12.2695 12.2695" stroke="#B9C1C6" stroke-width="1.249" stroke-miterlimit="10" stroke-linecap="round"/>
<path d="M27.9375 31.5375L27.5 27.5L31.5375 27.9375" stroke="#B9C1C6" stroke-width="1.249" stroke-miterlimit="10" stroke-linecap="round"/>
<path d="M12.0609 8.46094L12.4984 12.4984L8.46094 12.0609" stroke="#B9C1C6" stroke-width="1.249" stroke-miterlimit="10" stroke-linecap="round"/>
<path d="M20.1581 11.8888L12.2031 19.8438L20.1581 27.7987L28.113 19.8438L20.1581 11.8888Z" stroke="#B9C1C6" stroke-width="1.249" stroke-miterlimit="10" stroke-linecap="round"/>
</svg>
