<svg width="654" height="96" viewBox="0 0 654 96" fill="none" xmlns="http://www.w3.org/2000/svg">
<path fill-rule="evenodd" clip-rule="evenodd" d="M197 3C197 1.34315 195.657 0 194 0H189C187.343 0 186 1.34315 186 3V11V85V93C186 94.6569 187.343 96 189 96H197H271H279C280.657 96 282 94.6569 282 93V88C282 86.3431 280.657 85 279 85H271H200C198.343 85 197 83.6569 197 82V11V3Z" fill="white"/>
<path fill-rule="evenodd" clip-rule="evenodd" d="M372 3C372 1.34315 373.343 0 375 0H465C466.657 0 468 1.34315 468 3V93C468 94.6569 466.657 96 465 96H375C373.343 96 372 94.6569 372 93V3ZM388 11C385.239 11 383 13.2386 383 16V80C383 82.7614 385.239 85 388 85H452C454.761 85 457 82.7614 457 80V16C457 13.2386 454.761 11 452 11H388Z" fill="white"/>
<rect x="604.828" y="56.02" width="13" height="56.527" rx="3" transform="rotate(-45 604.828 56.02)" fill="white"/>
<path fill-rule="evenodd" clip-rule="evenodd" d="M569 14C569 12.3431 570.343 11 572 11H640C641.657 11 643 12.3431 643 14V53C643 54.6569 644.343 56 646 56H651C652.657 56 654 54.6569 654 53V11V3C654 1.34315 652.657 0 651 0H643H569H561C559.343 0 558 1.34315 558 3V11V85V93C558 94.6569 559.343 96 561 96H569H611C612.657 96 614 94.6569 614 93V88C614 86.3431 612.657 85 611 85H572C570.343 85 569 83.6569 569 82V14Z" fill="#02C9C6"/>
<path fill-rule="evenodd" clip-rule="evenodd" d="M11 14C11 12.3431 12.3431 11 14 11H82C83.6569 11 85 12.3431 85 14V27C85 28.6569 86.3431 30 88 30H93C94.6569 30 96 28.6569 96 27V11V3C96 1.34315 94.6569 0 93 0H85H11H3C1.34315 0 0 1.34315 0 3V11V85V93C0 94.6569 1.34315 96 3 96H11H85H93C94.6569 96 96 94.6569 96 93V85V70C96 68.3431 94.6569 67 93 67H88C86.3431 67 85 68.3431 85 70V82C85 83.6569 83.6569 85 82 85H14C12.3431 85 11 83.6569 11 82V14Z" fill="white"/>
</svg>
