<svg width="40" height="40" viewBox="0 0 40 40" fill="none" xmlns="http://www.w3.org/2000/svg">
<path d="M19.9993 30.8334C25.9824 30.8334 30.8327 25.9832 30.8327 20.0001C30.8327 14.017 25.9824 9.16675 19.9993 9.16675C14.0163 9.16675 9.16602 14.017 9.16602 20.0001C9.16602 25.9832 14.0163 30.8334 19.9993 30.8334Z" stroke="white" stroke-opacity="0.4" stroke-width="2.5" stroke-linecap="round" stroke-linejoin="round"/>
<path d="M31.9006 31.8999L31.684 31.6833M31.684 8.31658L31.9006 8.09992L31.684 8.31658ZM8.10065 31.8999L8.31732 31.6833L8.10065 31.8999ZM20.0007 3.46659V3.33325V3.46659ZM20.0007 36.6666V36.5333V36.6666ZM3.46732 19.9999H3.33398H3.46732ZM36.6673 19.9999H36.534H36.6673ZM8.31732 8.31658L8.10065 8.09992L8.31732 8.31658Z" stroke="white" stroke-opacity="0.4" stroke-width="3.33333" stroke-linecap="round" stroke-linejoin="round"/>
</svg>
