<svg width="316" height="116" viewBox="0 0 316 116" fill="none" xmlns="http://www.w3.org/2000/svg">
<path d="M53.2515 12.9839C55.5325 12.9839 57.521 18.4523 59.2171 29.3892H59.3926C65.1827 26.6404 74.2773 23.4529 86.6763 19.8268C98.0811 17.0779 104.865 15.7035 107.029 15.7035C107.848 15.879 108.258 16.4346 108.258 17.3704V17.6335C108.258 18.6278 104.515 19.6805 97.0283 20.7918C83.4596 24.067 71.6746 27.8393 61.6735 32.1088C61.6735 32.3428 60.9132 32.6644 59.3926 33.0738V33.6002C59.3926 56.3513 52.8421 77.8741 39.7413 98.1688C31.4362 109.457 23.5991 115.101 16.2299 115.101H14.0366C6.19952 115.101 1.60837 109.866 0.263187 99.397L0 96.9406C0 81.1494 9.18231 65.0365 27.5469 48.6019C38.0744 40.5308 47.2275 34.7992 55.0061 31.407V31.1438C55.0061 26.8158 53.6024 21.4059 50.7951 14.9139C51.2045 13.6272 52.0233 12.9839 53.2515 12.9839ZM4.47418 95.186V97.467C4.47418 104.544 6.90135 109.106 11.7557 111.153C13.0424 111.504 14.2121 111.679 15.2649 111.679H15.7035C24.9443 111.679 34.3605 102.087 43.9523 82.9039C51.4969 66.06 55.2693 50.181 55.2693 35.2671H55.0061C48.1048 38.6008 40.9987 42.958 33.688 48.3387C25.9678 54.4797 19.973 60.533 15.7035 66.4986C8.21729 77.26 4.47418 86.8225 4.47418 95.186ZM49.6546 0H49.9178C50.7951 0 51.4969 0.438645 52.0233 1.31594C52.1988 1.60837 52.2865 1.9008 52.2865 2.19323V2.36868C52.2865 2.60263 52.228 2.89506 52.1111 3.24597V3.68462C52.1111 4.26948 51.7601 4.8251 51.0583 5.35147C50.4734 5.70239 49.9178 5.87785 49.3915 5.87785H49.1283C48.3679 5.87785 47.6954 5.55617 47.1105 4.91283C46.935 4.50342 46.8473 4.12327 46.8473 3.77235V3.59689C46.8473 3.30446 46.8766 3.07052 46.935 2.89506C46.8766 2.7196 46.8473 2.5149 46.8473 2.28096C46.8473 1.52064 47.3152 0.87729 48.251 0.350916C48.7189 0.116972 49.1867 0 49.6546 0Z" fill="url(#paint0_linear_310_19)"/>
<path d="M114.837 10.4398H115.101C117.148 10.5567 118.346 11.1416 118.697 12.1943V12.7207C118.288 13.7735 117.586 14.2998 116.592 14.2998H116.241C116.007 14.2998 115.51 14.1829 114.75 13.9489C114.633 13.8904 114.516 13.8612 114.399 13.8612C112.352 13.8612 109.252 16.6685 105.099 22.2832C103.637 24.4472 102.438 26.8158 101.503 29.3892C101.561 29.3892 101.59 29.4185 101.59 29.477C103.52 28.8921 108.053 25.1198 115.188 18.1599C117.469 15.7035 118.873 14.4753 119.399 14.4753H119.575C120.16 14.4753 121.505 15.7035 123.61 18.1599C131.623 26.0555 140.659 30.0033 150.718 30.0033H150.806C161.743 30.0033 173.353 25.2367 185.635 15.7035C185.986 15.528 186.336 15.4403 186.687 15.4403H186.951C188.12 15.6158 188.705 16.1129 188.705 16.9317V17.1949C188.705 17.7798 187.916 18.5986 186.336 19.6513C182.886 22.2247 179.26 24.5641 175.458 26.6696C166.568 31.3485 158.468 33.688 151.157 33.688H149.49C141.712 33.688 134.108 31.1146 126.681 25.9678C124.926 24.8566 122.411 22.6633 119.136 19.3881C113.404 25.1197 109.369 28.7166 107.029 30.1788C104.105 32.3428 101.678 33.4248 99.7479 33.4248C98.6952 33.4248 97.9641 32.9569 97.5547 32.0211C97.4377 31.7287 97.3792 31.3778 97.3792 30.9684V30.442C97.3792 27.6931 99.4262 23.5699 103.52 18.0722C107.79 12.9839 111.562 10.4398 114.837 10.4398Z" fill="url(#paint1_linear_310_19)"/>
<path d="M198.004 6.66741C198.823 7.1353 199.233 7.72016 199.233 8.42199C198.999 9.12382 196.981 10.6152 193.179 12.8962C190.197 15.1771 188.705 17.0487 188.705 18.5108V18.8617C188.705 20.9672 192.273 22.985 199.408 24.915C204.204 26.8451 206.602 29.7401 206.602 33.6002H206.777C217.656 27.8101 231.225 21.9907 247.484 16.1421C248.595 15.7912 249.355 15.6158 249.765 15.6158H249.94C251.11 15.7327 251.695 16.2884 251.695 17.2826C251.695 18.3354 248.741 19.7098 242.834 21.4059C226.692 27.6639 214.205 33.337 205.374 38.4253C203.97 41.7005 201.601 45.0635 198.268 48.5142C193.296 53.0176 189.612 55.2693 187.214 55.2693H185.81C183.763 54.9769 182.74 54.0118 182.74 52.3742V52.0233C182.74 48.6896 189.144 43.3966 201.952 36.1444C202.186 35.0916 202.303 34.2436 202.303 33.6002C202.303 30.5005 198.765 28.044 191.688 26.231C186.892 24.3594 184.494 22.0492 184.494 19.3004V18.8617C184.494 15.0602 188.559 10.9954 196.689 6.66741H198.004ZM186.775 51.8479H187.214C188.851 51.8479 191.805 49.7131 196.074 45.4436C197.654 43.806 198.443 42.7533 198.443 42.2854C194.408 44.3324 190.518 47.4322 186.775 51.5847V51.8479Z" fill="url(#paint2_linear_310_19)"/>
<path d="M259.064 10.4398C261.579 10.9661 262.807 12.1651 262.748 14.0366V14.2998C262.69 16.4638 260.321 18.7448 255.642 21.1427C252.192 22.3709 250.028 22.9558 249.15 22.8973C248.273 24.4764 247.805 25.9678 247.747 27.3715V27.6346C247.688 30.2665 249.735 31.6409 253.888 31.7579H254.59C263.597 31.9919 281.055 27.4592 306.964 18.1599C310.999 16.5223 313.368 15.7035 314.07 15.7035H314.245C315.415 15.9374 316 16.5223 316 17.4581C315.942 18.4523 314.304 19.3881 311.087 20.2654C299.565 24.8273 286.991 28.8629 273.364 32.372C264.766 34.419 258.362 35.384 254.151 35.2671H253.712C247.981 35.0916 244.618 33.1616 243.624 29.477C243.507 29.1845 243.448 28.7751 243.448 28.2488L243.536 27.196C243.594 23.6284 245.934 19.4758 250.554 14.7385C253.946 11.8142 256.783 10.3813 259.064 10.4398ZM251.958 18.6863H252.133C256.344 17.0487 258.45 15.528 258.45 14.1244V14.0366L257.923 13.9489H257.836C256.607 13.8904 254.648 15.4696 251.958 18.6863Z" fill="url(#paint3_linear_310_19)"/>
<defs>
<linearGradient id="paint0_linear_310_19" x1="87.5" y1="53.5" x2="246.542" y2="-80.387" gradientUnits="userSpaceOnUse">
<stop stop-color="#29AEAE"/>
<stop offset="0.998652" stop-color="#AE04FE"/>
<stop offset="0.998752" stop-color="#BC70FF"/>
</linearGradient>
<linearGradient id="paint1_linear_310_19" x1="87.5" y1="53.5" x2="246.542" y2="-80.387" gradientUnits="userSpaceOnUse">
<stop stop-color="#29AEAE"/>
<stop offset="0.998652" stop-color="#AE04FE"/>
<stop offset="0.998752" stop-color="#BC70FF"/>
</linearGradient>
<linearGradient id="paint2_linear_310_19" x1="87.5" y1="53.5" x2="246.542" y2="-80.387" gradientUnits="userSpaceOnUse">
<stop stop-color="#29AEAE"/>
<stop offset="0.998652" stop-color="#AE04FE"/>
<stop offset="0.998752" stop-color="#BC70FF"/>
</linearGradient>
<linearGradient id="paint3_linear_310_19" x1="87.5" y1="53.5" x2="246.542" y2="-80.387" gradientUnits="userSpaceOnUse">
<stop stop-color="#29AEAE"/>
<stop offset="0.998652" stop-color="#AE04FE"/>
<stop offset="0.998752" stop-color="#BC70FF"/>
</linearGradient>
</defs>
</svg>
