<svg width="26" height="26" viewBox="0 0 26 26" fill="none" xmlns="http://www.w3.org/2000/svg">
<path fill-rule="evenodd" clip-rule="evenodd" d="M3.23226 3.55086C3.23226 2.99857 3.67997 2.55086 4.23226 2.55086C9.45978 2.55086 14.4824 4.52814 18.193 8.06201C21.9052 11.5975 24.0003 16.4033 24.0003 21.4252C24.0003 21.9775 23.5526 22.4252 23.0003 22.4252C22.448 22.4252 22.0003 21.9775 22.0003 21.4252C22.0003 16.966 20.1408 12.679 16.8137 9.51029C13.4848 6.33996 8.95998 4.55086 4.23226 4.55086C3.67997 4.55086 3.23226 4.10314 3.23226 3.55086ZM3.23226 11.3709C3.23226 10.8186 3.67997 10.3709 4.23226 10.3709C7.28207 10.3709 10.2162 11.5243 12.3869 13.5916L12.3869 13.5916C14.5592 15.6605 15.7893 18.4773 15.7893 21.4252C15.7893 21.9775 15.3416 22.4252 14.7893 22.4252C14.237 22.4252 13.7893 21.9775 13.7893 21.4252C13.7893 19.0401 12.7949 16.7421 11.0076 15.0399C9.21861 13.3361 6.78227 12.3709 4.23226 12.3709C3.67997 12.3709 3.23226 11.9232 3.23226 11.3709ZM3.23226 20.3081C3.23226 19.0935 4.2517 18.191 5.40527 18.191C6.55883 18.191 7.57828 19.0935 7.57828 20.3081C7.57828 21.5228 6.55889 22.4253 5.40527 22.4253C4.25164 22.4253 3.23226 21.5228 3.23226 20.3081ZM5.26547 20.2424C5.23744 20.2691 5.23226 20.292 5.23226 20.3081C5.23226 20.3243 5.23747 20.3473 5.2655 20.3739C5.29437 20.4015 5.34163 20.4253 5.40527 20.4253C5.4689 20.4253 5.51616 20.4015 5.54504 20.374C5.57306 20.3473 5.57828 20.3243 5.57828 20.3081C5.57828 20.292 5.5731 20.2691 5.54506 20.2424C5.51617 20.2148 5.4689 20.191 5.40527 20.191C5.34163 20.191 5.29436 20.2148 5.26547 20.2424Z" fill="white"/>
</svg>
