<svg width="26" height="26" viewBox="0 0 26 26" fill="none" xmlns="http://www.w3.org/2000/svg">
<path fill-rule="evenodd" clip-rule="evenodd" d="M3.48242 3.55078C3.48242 3.13657 3.81821 2.80078 4.23242 2.80078C9.39747 2.80078 14.3579 4.75454 18.0207 8.24297C21.6848 11.7326 23.7505 16.4735 23.7505 21.4252C23.7505 21.8394 23.4147 22.1752 23.0005 22.1752C22.5863 22.1752 22.2505 21.8394 22.2505 21.4252C22.2505 16.8956 20.3616 12.5437 16.9863 9.32917C13.6097 6.1134 9.02262 4.30078 4.23242 4.30078C3.81821 4.30078 3.48242 3.96499 3.48242 3.55078ZM3.48242 11.3708C3.48242 10.9566 3.81821 10.6208 4.23242 10.6208C7.21976 10.6208 10.0917 11.7507 12.2146 13.7725L12.2146 13.7726C14.3388 15.7957 15.5395 18.5476 15.5395 21.4251C15.5395 21.8394 15.2037 22.1751 14.7895 22.1751C14.3753 22.1751 14.0395 21.8394 14.0395 21.4251C14.0395 18.9697 13.0156 16.6069 11.1802 14.8588C9.34347 13.1096 6.84491 12.1208 4.23242 12.1208C3.81821 12.1208 3.48242 11.7851 3.48242 11.3708ZM3.48242 20.308C3.48242 19.2428 4.3783 18.4409 5.40543 18.4409C6.43256 18.4409 7.32844 19.2428 7.32844 20.308C7.32844 21.3733 6.43261 22.1752 5.40543 22.1752C4.37826 22.1752 3.48242 21.3733 3.48242 20.308ZM5.40543 19.9409C5.1369 19.9409 4.98242 20.1394 4.98242 20.308C4.98242 20.4768 5.13695 20.6752 5.40543 20.6752C5.67392 20.6752 5.82844 20.4768 5.82844 20.308C5.82844 20.1394 5.67396 19.9409 5.40543 19.9409Z" fill="#06A7A5"/>
</svg>
