<?xml version="1.0" standalone="no"?>
<!DOCTYPE svg PUBLIC "-//W3C//DTD SVG 20010904//EN"
 "http://www.w3.org/TR/2001/REC-SVG-20010904/DTD/svg10.dtd">
<svg version="1.0" xmlns="http://www.w3.org/2000/svg"
 width="400.000000pt" height="400.000000pt" viewBox="0 0 400.000000 400.000000"
 preserveAspectRatio="xMidYMid meet">
<metadata>
Created by potrace 1.14, written by Peter Selinger 2001-2017
</metadata>
<g transform="translate(0.000000,400.000000) scale(0.100000,-0.100000)"
fill="#000000" stroke="none">
<path d="M0 2000 l0 -2000 2000 0 2000 0 0 2000 0 2000 -2000 0 -2000 0 0
-2000z m3227 1250 c17 -6 35 -22 42 -36 15 -34 16 -1327 0 -1372 -14 -42 -52
-55 -148 -51 -68 4 -84 8 -103 27 l-23 23 -3 541 c-2 539 -3 542 -24 565 l-21
23 -926 0 -925 0 -23 -22 -23 -21 0 -927 0 -927 23 -21 c23 -21 26 -22 566
-24 l543 -3 24 -28 c21 -24 24 -38 24 -101 0 -89 -13 -130 -46 -145 -34 -15
-1327 -16 -1371 -1 -17 6 -35 22 -42 36 -15 34 -16 2377 0 2421 5 17 20 35 32
41 31 15 2382 16 2424 2z m-479 -1733 c260 -259 480 -485 488 -501 9 -15 13
-38 10 -50 -7 -28 -178 -196 -200 -196 -9 0 -29 6 -44 14 -46 25 -970 958
-977 987 -4 16 -1 38 8 55 17 31 129 144 162 163 50 29 62 19 553 -472z"/>
</g>
</svg>
