<svg xmlns="http://www.w3.org/2000/svg" width="40" height="40" viewBox="0 0 40 40" fill="none">
                        <path d="M5.61111 7.32214L5.17778 6.88881C4.74444 6.45547 4.04444 6.46659 3.62222 6.88881L3.61111 6.89992C3.17778 7.33325 3.17778 8.03325 3.61111 8.45547L4.04444 8.88881C4.47778 9.32214 5.16667 9.32214 5.6 8.88881L5.61111 8.8777C6.04444 8.45547 6.04444 7.74436 5.61111 7.32214Z" fill="yellow"></path>
                        <path d="M2.23333 14.3888H1.1C0.488889 14.3888 0 14.8777 0 15.4888V15.4999C0 16.111 0.488889 16.5999 1.1 16.5999H2.22222C2.84444 16.611 3.33333 16.1221 3.33333 15.511V15.4999C3.33333 14.8777 2.84444 14.3888 2.23333 14.3888Z" fill="yellow"></path>
                        <path d="M12.2333 3.33325H12.2222C11.6 3.33325 11.1111 3.82214 11.1111 4.43325V5.49992C11.1111 6.11103 11.6 6.59992 12.2111 6.59992H12.2222C12.8444 6.61103 13.3333 6.12214 13.3333 5.51103V4.43325C13.3333 3.82214 12.8444 3.33325 12.2333 3.33325Z" fill="yellow"></path>
                        <path d="M20.8333 6.89992C20.4 6.46659 19.7 6.46659 19.2667 6.88881L18.8333 7.32214C18.4 7.75547 18.4 8.45547 18.8333 8.8777L18.8444 8.88881C19.2778 9.32214 19.9778 9.32214 20.4 8.88881L20.8333 8.45547C21.2667 8.02214 21.2667 7.33325 20.8333 6.89992Z" fill="yellow"></path>
                        <path d="M12.2222 8.83325C8.54444 8.83325 5.55556 11.8221 5.55556 15.4999C5.55556 17.8839 6.81138 19.9784 8.69663 21.157C9.59871 18.5437 12.0801 16.6666 15 16.6666C15.1149 16.6666 15.2291 16.6695 15.3426 16.6752C15.8239 14.9671 16.7879 13.4611 18.078 12.314C16.9465 10.2414 14.7466 8.83325 12.2222 8.83325Z" fill="yellow"></path>
                        <path d="M3.61111 24.0999C4.04444 24.5333 4.74444 24.5333 5.17778 24.0999L5.61111 23.6666C6.04444 23.2333 6.03333 22.5333 5.61111 22.111L5.6 22.0999C5.16667 21.6666 4.46667 21.6666 4.03333 22.0999L3.6 22.5333C3.17778 22.9777 3.17778 23.6666 3.61111 24.0999Z" fill="yellow"></path>
                        <path d="M11.6667 34.9999H33.3333C37.0152 34.9999 40 32.0151 40 28.3333C40 25.2063 37.8472 22.5822 34.9429 21.8622C34.9806 21.5244 35 21.1811 35 20.8333C35 15.7706 30.8959 11.6666 25.8333 11.6666C21.6343 11.6666 18.0946 14.49 17.0093 18.3419C16.8958 18.3362 16.7816 18.3333 16.6667 18.3333C12.9848 18.3333 10 21.318 10 24.9999C10 25.0945 10.002 25.1887 10.0059 25.2824C8.06082 25.9671 6.66667 27.8207 6.66667 29.9999C6.66667 32.7613 8.90524 34.9999 11.6667 34.9999Z" fill="white"></path>
                    </svg>