<svg width="26" height="26" viewBox="0 0 26 26" fill="none" xmlns="http://www.w3.org/2000/svg">
<path d="M21.0062 18.5799C22.0574 18.1195 22.9183 17.3115 23.4443 16.2915C23.9703 15.2714 24.1294 14.1015 23.8948 12.978C23.6603 11.8546 23.0464 10.846 22.1562 10.1217C21.2661 9.39727 20.1538 9.00115 19.0062 8.9998H17.7461C17.4291 7.77231 16.825 6.63772 15.9834 5.68955C15.1419 4.74139 14.087 4.0068 12.9058 3.54634C11.7246 3.08588 10.4509 2.91273 9.18968 3.04116C7.92844 3.16959 6.71577 3.59592 5.65164 4.28502C4.58751 4.97411 3.70238 5.90624 3.06921 7.00457C2.43604 8.1029 2.07297 9.33598 2.0099 10.6022C1.94684 11.8684 2.1856 13.1314 2.70651 14.2872C3.22741 15.443 4.01554 16.4585 5.00594 17.2499" stroke="#06A7A5" stroke-width="1.5" stroke-linecap="round" stroke-linejoin="round"/>
<path d="M9.00586 17H9.01586" stroke="#06A7A5" stroke-width="1.5" stroke-linecap="round" stroke-linejoin="round"/>
<path d="M9.00586 21H9.01586" stroke="#06A7A5" stroke-width="1.5" stroke-linecap="round" stroke-linejoin="round"/>
<path d="M13.0059 19H13.0159" stroke="#06A7A5" stroke-width="1.5" stroke-linecap="round" stroke-linejoin="round"/>
<path d="M13.0059 23H13.0159" stroke="#06A7A5" stroke-width="1.5" stroke-linecap="round" stroke-linejoin="round"/>
<path d="M17.0059 17H17.0159" stroke="#06A7A5" stroke-width="1.5" stroke-linecap="round" stroke-linejoin="round"/>
<path d="M17.0059 21H17.0159" stroke="#06A7A5" stroke-width="1.5" stroke-linecap="round" stroke-linejoin="round"/>
</svg>
